# xmcd
#
# Track frame offsets:
#	150
#	18942
#	28535
#	40072
#	54640
#	68672
#	87600
#	105567
#	123217
#	141392
#	157035
#	183570
#	194245
#	217335
#	230812
#
# Disc length: 3263 seconds
#
# Revision: 0
# Processed by: cddbd v1.4PL0 Copyright (c) Steve Scherf et al.
# Submitted via: dBpowerAMP V4.0
#
DISCID=e30cbd0f
DTITLE=Willie Nelson - The Hungry Years
DYEAR=1900
DGENRE=Country
TTITLE0=The Hungry Years
TTITLE1=Detour
TTITLE2=I'm Ragged But I'm Right
TTITLE3=It Wouldn't Be The Same (Without You)
TTITLE4=Your Memory Won't Die
TTITLE5=When I Stop Dreaming
TTITLE6=If That's The Fashion
TTITLE7=Solitaire
TTITLE8=Milk Cow Blues
TTITLE9=Linda
TTITLE10=The Last Thing On My Mind
TTITLE11=She Is Gone
TTITLE12=Til I Gain Control Again
TTITLE13=Time Changes Everything
TTITLE14=Carefree Moments
EXTD=
EXTT0=
EXTT1=
EXTT2=
EXTT3=
EXTT4=
EXTT5=
EXTT6=
EXTT7=
EXTT8=
EXTT9=
EXTT10=
EXTT11=
EXTT12=
EXTT13=
EXTT14=
PLAYORDER=
